<mxfile host="app.diagrams.net" modified="2023-10-15T21:27:31.439Z" agent="Mozilla/5.0 (Windows NT 10.0; Win64; x64) AppleWebKit/537.36 (KHTML, like Gecko) Chrome/117.0.0.0 Safari/537.36" etag="ttzbxw2s1HCeTg8Lityv" version="22.0.4" type="github">
  <diagram name="Page-1" id="UYL8_NdyV3v0G7oxMtFX">
    <mxGraphModel dx="2087" dy="858" grid="1" gridSize="10" guides="1" tooltips="1" connect="1" arrows="1" fold="1" page="0" pageScale="1" pageWidth="1169" pageHeight="827" math="0" shadow="0">
      <root>
        <mxCell id="0" />
        <mxCell id="1" parent="0" />
        <mxCell id="Ads9iYY9otx-zzuFFO7g-1" value="Input" style="html=1;whiteSpace=wrap;fillColor=#ffe6cc;strokeColor=#d79b00;" parent="1" vertex="1">
          <mxGeometry x="171" y="90" width="110" height="50" as="geometry" />
        </mxCell>
        <mxCell id="Ads9iYY9otx-zzuFFO7g-10" style="edgeStyle=orthogonalEdgeStyle;rounded=0;orthogonalLoop=1;jettySize=auto;html=1;exitX=0.5;exitY=1;exitDx=0;exitDy=0;entryX=0.5;entryY=0.25;entryDx=0;entryDy=0;entryPerimeter=0;" parent="1" source="Ads9iYY9otx-zzuFFO7g-1" target="Ads9iYY9otx-zzuFFO7g-5" edge="1">
          <mxGeometry relative="1" as="geometry">
            <Array as="points">
              <mxPoint x="226" y="255" />
            </Array>
          </mxGeometry>
        </mxCell>
        <mxCell id="Ads9iYY9otx-zzuFFO7g-11" value="Event.publish()" style="edgeLabel;html=1;align=center;verticalAlign=middle;resizable=0;points=[];" parent="Ads9iYY9otx-zzuFFO7g-10" vertex="1" connectable="0">
          <mxGeometry x="-0.0609" y="1" relative="1" as="geometry">
            <mxPoint as="offset" />
          </mxGeometry>
        </mxCell>
        <mxCell id="Ads9iYY9otx-zzuFFO7g-16" style="edgeStyle=orthogonalEdgeStyle;rounded=0;orthogonalLoop=1;jettySize=auto;html=1;exitX=0.5;exitY=1;exitDx=0;exitDy=0;entryX=0.45;entryY=0.25;entryDx=0;entryDy=0;entryPerimeter=0;" parent="1" source="Ads9iYY9otx-zzuFFO7g-2" target="Ads9iYY9otx-zzuFFO7g-14" edge="1">
          <mxGeometry relative="1" as="geometry" />
        </mxCell>
        <mxCell id="Ads9iYY9otx-zzuFFO7g-17" value="Command.publish()" style="edgeLabel;html=1;align=center;verticalAlign=middle;resizable=0;points=[];" parent="Ads9iYY9otx-zzuFFO7g-16" vertex="1" connectable="0">
          <mxGeometry x="-0.25" y="1" relative="1" as="geometry">
            <mxPoint as="offset" />
          </mxGeometry>
        </mxCell>
        <mxCell id="Ads9iYY9otx-zzuFFO7g-19" style="edgeStyle=orthogonalEdgeStyle;rounded=0;orthogonalLoop=1;jettySize=auto;html=1;exitX=0.5;exitY=0;exitDx=0;exitDy=0;entryX=0.5;entryY=1;entryDx=0;entryDy=0;" parent="1" source="Ads9iYY9otx-zzuFFO7g-18" target="Ads9iYY9otx-zzuFFO7g-13" edge="1">
          <mxGeometry relative="1" as="geometry" />
        </mxCell>
        <mxCell id="Ads9iYY9otx-zzuFFO7g-20" value="invoke()" style="edgeLabel;html=1;align=center;verticalAlign=middle;resizable=0;points=[];" parent="Ads9iYY9otx-zzuFFO7g-19" vertex="1" connectable="0">
          <mxGeometry x="0.3" y="-1" relative="1" as="geometry">
            <mxPoint x="-1" y="12" as="offset" />
          </mxGeometry>
        </mxCell>
        <mxCell id="Ads9iYY9otx-zzuFFO7g-32" style="edgeStyle=orthogonalEdgeStyle;rounded=0;orthogonalLoop=1;jettySize=auto;html=1;exitX=0.5;exitY=1;exitDx=0;exitDy=0;entryX=0.5;entryY=0;entryDx=0;entryDy=0;startArrow=classic;startFill=1;" parent="1" source="Ads9iYY9otx-zzuFFO7g-18" target="Ads9iYY9otx-zzuFFO7g-31" edge="1">
          <mxGeometry relative="1" as="geometry" />
        </mxCell>
        <mxCell id="Ads9iYY9otx-zzuFFO7g-57" value="send()" style="edgeLabel;html=1;align=center;verticalAlign=middle;resizable=0;points=[];" parent="Ads9iYY9otx-zzuFFO7g-32" vertex="1" connectable="0">
          <mxGeometry x="-0.1" relative="1" as="geometry">
            <mxPoint x="-26" y="14" as="offset" />
          </mxGeometry>
        </mxCell>
        <mxCell id="Ads9iYY9otx-zzuFFO7g-58" value="receive()" style="edgeLabel;html=1;align=center;verticalAlign=middle;resizable=0;points=[];" parent="Ads9iYY9otx-zzuFFO7g-32" vertex="1" connectable="0">
          <mxGeometry x="-0.075" y="1" relative="1" as="geometry">
            <mxPoint x="33" y="13" as="offset" />
          </mxGeometry>
        </mxCell>
        <mxCell id="Ads9iYY9otx-zzuFFO7g-18" value="ServerAdapter" style="html=1;whiteSpace=wrap;fillColor=#ffe6cc;strokeColor=#d79b00;" parent="1" vertex="1">
          <mxGeometry x="171" y="560" width="110" height="50" as="geometry" />
        </mxCell>
        <mxCell id="Ads9iYY9otx-zzuFFO7g-31" value="Connection" style="html=1;whiteSpace=wrap;fillColor=#ffe6cc;strokeColor=#d79b00;" parent="1" vertex="1">
          <mxGeometry x="171" y="690" width="110" height="50" as="geometry" />
        </mxCell>
        <mxCell id="Ads9iYY9otx-zzuFFO7g-39" value="" style="rounded=0;orthogonalLoop=1;jettySize=auto;html=1;endArrow=halfCircle;endFill=0;endSize=6;strokeWidth=1;sketch=0;exitX=0.5;exitY=1;exitDx=0;exitDy=0;" parent="1" source="Ads9iYY9otx-zzuFFO7g-33" target="Ads9iYY9otx-zzuFFO7g-41" edge="1">
          <mxGeometry relative="1" as="geometry">
            <mxPoint x="434" y="815" as="sourcePoint" />
            <Array as="points">
              <mxPoint x="960" y="875" />
              <mxPoint x="600" y="875" />
            </Array>
          </mxGeometry>
        </mxCell>
        <mxCell id="Ads9iYY9otx-zzuFFO7g-40" value="" style="rounded=0;orthogonalLoop=1;jettySize=auto;html=1;endArrow=oval;endFill=0;sketch=0;sourcePerimeterSpacing=0;targetPerimeterSpacing=0;endSize=10;exitX=0.5;exitY=1;exitDx=0;exitDy=0;" parent="1" source="Ads9iYY9otx-zzuFFO7g-31" target="Ads9iYY9otx-zzuFFO7g-41" edge="1">
          <mxGeometry relative="1" as="geometry">
            <mxPoint x="394" y="815" as="sourcePoint" />
            <Array as="points">
              <mxPoint x="226" y="875" />
            </Array>
          </mxGeometry>
        </mxCell>
        <mxCell id="Ads9iYY9otx-zzuFFO7g-41" value="WebSocket" style="ellipse;whiteSpace=wrap;html=1;align=center;aspect=fixed;fillColor=none;strokeColor=none;resizable=0;perimeter=centerPerimeter;rotatable=0;allowArrows=0;points=[];outlineConnect=1;labelPosition=center;verticalLabelPosition=bottom;verticalAlign=top;" parent="1" vertex="1">
          <mxGeometry x="600" y="870" width="10" height="10" as="geometry" />
        </mxCell>
        <mxCell id="Ads9iYY9otx-zzuFFO7g-42" value="client" style="shape=umlFrame;whiteSpace=wrap;html=1;pointerEvents=0;fillColor=#ffe6cc;strokeColor=#d79b00;" parent="1" vertex="1">
          <mxGeometry x="-130" y="15" width="760" height="785" as="geometry" />
        </mxCell>
        <mxCell id="Ads9iYY9otx-zzuFFO7g-64" style="edgeStyle=orthogonalEdgeStyle;rounded=0;orthogonalLoop=1;jettySize=auto;html=1;exitX=1;exitY=0.5;exitDx=0;exitDy=0;entryX=0.475;entryY=0.7;entryDx=0;entryDy=0;entryPerimeter=0;" parent="1" source="Ads9iYY9otx-zzuFFO7g-18" target="Ads9iYY9otx-zzuFFO7g-60" edge="1">
          <mxGeometry relative="1" as="geometry" />
        </mxCell>
        <mxCell id="Ads9iYY9otx-zzuFFO7g-65" value="Command.Result.send()" style="edgeLabel;html=1;align=center;verticalAlign=middle;resizable=0;points=[];" parent="Ads9iYY9otx-zzuFFO7g-64" vertex="1" connectable="0">
          <mxGeometry x="0.0339" y="1" relative="1" as="geometry">
            <mxPoint as="offset" />
          </mxGeometry>
        </mxCell>
        <mxCell id="Ads9iYY9otx-zzuFFO7g-66" value="GameState" style="html=1;whiteSpace=wrap;fillColor=#ffe6cc;strokeColor=#d79b00;" parent="1" vertex="1">
          <mxGeometry x="450" y="300" width="110" height="50" as="geometry" />
        </mxCell>
        <mxCell id="Ads9iYY9otx-zzuFFO7g-67" style="edgeStyle=orthogonalEdgeStyle;rounded=0;orthogonalLoop=1;jettySize=auto;html=1;exitX=0.5;exitY=0;exitDx=0;exitDy=0;entryX=0.5;entryY=1;entryDx=0;entryDy=0;" parent="1" source="Ads9iYY9otx-zzuFFO7g-59" target="Ads9iYY9otx-zzuFFO7g-66" edge="1">
          <mxGeometry relative="1" as="geometry" />
        </mxCell>
        <mxCell id="Ads9iYY9otx-zzuFFO7g-68" value="update()" style="edgeLabel;html=1;align=center;verticalAlign=middle;resizable=0;points=[];" parent="Ads9iYY9otx-zzuFFO7g-67" vertex="1" connectable="0">
          <mxGeometry x="0.0047" relative="1" as="geometry">
            <mxPoint y="1" as="offset" />
          </mxGeometry>
        </mxCell>
        <mxCell id="Ads9iYY9otx-zzuFFO7g-72" style="edgeStyle=orthogonalEdgeStyle;rounded=0;orthogonalLoop=1;jettySize=auto;html=1;exitX=0.5;exitY=1;exitDx=0;exitDy=0;entryX=0.5;entryY=0;entryDx=0;entryDy=0;" parent="1" source="Ads9iYY9otx-zzuFFO7g-69" target="Ads9iYY9otx-zzuFFO7g-66" edge="1">
          <mxGeometry relative="1" as="geometry" />
        </mxCell>
        <mxCell id="Ads9iYY9otx-zzuFFO7g-73" value="&amp;lt;&amp;lt;draw&amp;gt;&amp;gt;" style="edgeLabel;html=1;align=center;verticalAlign=middle;resizable=0;points=[];" parent="Ads9iYY9otx-zzuFFO7g-72" vertex="1" connectable="0">
          <mxGeometry x="-0.0182" y="1" relative="1" as="geometry">
            <mxPoint as="offset" />
          </mxGeometry>
        </mxCell>
        <mxCell id="Ads9iYY9otx-zzuFFO7g-69" value="UserInterface" style="html=1;whiteSpace=wrap;fillColor=#ffe6cc;strokeColor=#d79b00;" parent="1" vertex="1">
          <mxGeometry x="450" y="140" width="110" height="50" as="geometry" />
        </mxCell>
        <mxCell id="Ads9iYY9otx-zzuFFO7g-70" style="edgeStyle=orthogonalEdgeStyle;rounded=0;orthogonalLoop=1;jettySize=auto;html=1;exitX=1;exitY=0.5;exitDx=0;exitDy=0;entryX=0;entryY=0.5;entryDx=0;entryDy=0;" parent="1" source="Ads9iYY9otx-zzuFFO7g-2" target="Ads9iYY9otx-zzuFFO7g-69" edge="1">
          <mxGeometry relative="1" as="geometry" />
        </mxCell>
        <mxCell id="Ads9iYY9otx-zzuFFO7g-71" value="&amp;lt;&amp;lt;update&amp;gt;&amp;gt;" style="edgeLabel;html=1;align=center;verticalAlign=middle;resizable=0;points=[];" parent="Ads9iYY9otx-zzuFFO7g-70" vertex="1" connectable="0">
          <mxGeometry x="-0.0215" y="-1" relative="1" as="geometry">
            <mxPoint x="1" y="1" as="offset" />
          </mxGeometry>
        </mxCell>
        <mxCell id="Ads9iYY9otx-zzuFFO7g-59" value="Command.Result.Processor" style="html=1;whiteSpace=wrap;fillColor=#ffe6cc;strokeColor=#d79b00;" parent="1" vertex="1">
          <mxGeometry x="419.5" y="430" width="171" height="50" as="geometry" />
        </mxCell>
        <mxCell id="Ads9iYY9otx-zzuFFO7g-60" value="Command.Result.channel" style="shape=providedRequiredInterface;html=1;verticalLabelPosition=bottom;sketch=0;labelPosition=left;align=right;verticalAlign=top;fillColor=#ffe6cc;strokeColor=#d79b00;" parent="1" vertex="1">
          <mxGeometry x="495" y="470" width="20" height="20" as="geometry" />
        </mxCell>
        <mxCell id="Ads9iYY9otx-zzuFFO7g-13" value="Command.Processor" style="html=1;whiteSpace=wrap;fillColor=#ffe6cc;strokeColor=#d79b00;" parent="1" vertex="1">
          <mxGeometry x="156" y="430" width="140" height="50" as="geometry" />
        </mxCell>
        <mxCell id="Ads9iYY9otx-zzuFFO7g-14" value="Command.channel" style="shape=providedRequiredInterface;html=1;verticalLabelPosition=top;sketch=0;labelPosition=right;align=left;verticalAlign=bottom;fillColor=#ffe6cc;strokeColor=#d79b00;" parent="1" vertex="1">
          <mxGeometry x="216" y="420" width="20" height="20" as="geometry" />
        </mxCell>
        <mxCell id="Ads9iYY9otx-zzuFFO7g-2" value="Event.Processor" style="html=1;whiteSpace=wrap;fillColor=#ffe6cc;strokeColor=#d79b00;" parent="1" vertex="1">
          <mxGeometry x="171" y="270" width="110" height="50" as="geometry" />
        </mxCell>
        <mxCell id="Ads9iYY9otx-zzuFFO7g-5" value="Event.channel" style="shape=providedRequiredInterface;html=1;verticalLabelPosition=top;sketch=0;labelPosition=right;align=left;verticalAlign=bottom;fillColor=#ffe6cc;strokeColor=#d79b00;" parent="1" vertex="1">
          <mxGeometry x="216" y="260" width="20" height="20" as="geometry" />
        </mxCell>
        <mxCell id="YpjcWF8Jt9GaCo87n-Lr-4" style="edgeStyle=orthogonalEdgeStyle;rounded=0;orthogonalLoop=1;jettySize=auto;html=1;exitX=1;exitY=0.5;exitDx=0;exitDy=0;entryX=0.5;entryY=0;entryDx=0;entryDy=0;" edge="1" parent="1" source="YpjcWF8Jt9GaCo87n-Lr-2" target="YpjcWF8Jt9GaCo87n-Lr-3">
          <mxGeometry relative="1" as="geometry">
            <Array as="points">
              <mxPoint x="-35" y="315" />
            </Array>
          </mxGeometry>
        </mxCell>
        <mxCell id="YpjcWF8Jt9GaCo87n-Lr-2" value="Main" style="html=1;whiteSpace=wrap;fillColor=#ffe6cc;strokeColor=#d79b00;" vertex="1" parent="1">
          <mxGeometry x="-90" y="290" width="110" height="50" as="geometry" />
        </mxCell>
        <mxCell id="YpjcWF8Jt9GaCo87n-Lr-11" style="edgeStyle=orthogonalEdgeStyle;rounded=0;orthogonalLoop=1;jettySize=auto;html=1;exitX=0.5;exitY=1;exitDx=0;exitDy=0;entryX=0.5;entryY=0;entryDx=0;entryDy=0;" edge="1" parent="1" source="YpjcWF8Jt9GaCo87n-Lr-3" target="YpjcWF8Jt9GaCo87n-Lr-10">
          <mxGeometry relative="1" as="geometry" />
        </mxCell>
        <mxCell id="YpjcWF8Jt9GaCo87n-Lr-3" value="Screen" style="html=1;whiteSpace=wrap;fillColor=#ffe6cc;strokeColor=#d79b00;" vertex="1" parent="1">
          <mxGeometry x="-90" y="430" width="110" height="50" as="geometry" />
        </mxCell>
        <mxCell id="YpjcWF8Jt9GaCo87n-Lr-8" value="" style="ellipse;html=1;shape=startState;fillColor=#000000;strokeColor=#ff0000;" vertex="1" parent="1">
          <mxGeometry x="-50" y="200" width="30" height="30" as="geometry" />
        </mxCell>
        <mxCell id="YpjcWF8Jt9GaCo87n-Lr-9" value="" style="edgeStyle=orthogonalEdgeStyle;html=1;verticalAlign=bottom;endArrow=open;endSize=8;strokeColor=#ff0000;rounded=0;entryX=0.5;entryY=0;entryDx=0;entryDy=0;" edge="1" source="YpjcWF8Jt9GaCo87n-Lr-8" parent="1" target="YpjcWF8Jt9GaCo87n-Lr-2">
          <mxGeometry relative="1" as="geometry">
            <mxPoint x="-35" y="270" as="targetPoint" />
          </mxGeometry>
        </mxCell>
        <mxCell id="YpjcWF8Jt9GaCo87n-Lr-12" style="edgeStyle=orthogonalEdgeStyle;rounded=0;orthogonalLoop=1;jettySize=auto;html=1;exitX=1;exitY=0.5;exitDx=0;exitDy=0;entryX=0;entryY=0.5;entryDx=0;entryDy=0;" edge="1" parent="1" source="YpjcWF8Jt9GaCo87n-Lr-10" target="Ads9iYY9otx-zzuFFO7g-18">
          <mxGeometry relative="1" as="geometry" />
        </mxCell>
        <mxCell id="YpjcWF8Jt9GaCo87n-Lr-10" value="LoginWindow" style="html=1;whiteSpace=wrap;fillColor=#ffe6cc;strokeColor=#d79b00;" vertex="1" parent="1">
          <mxGeometry x="-90" y="560" width="110" height="50" as="geometry" />
        </mxCell>
        <mxCell id="Ads9iYY9otx-zzuFFO7g-21" value="ServerAdapter" style="html=1;whiteSpace=wrap;fillColor=#d5e8d4;strokeColor=#82b366;" parent="1" vertex="1">
          <mxGeometry x="905" y="560" width="110" height="50" as="geometry" />
        </mxCell>
        <mxCell id="Ads9iYY9otx-zzuFFO7g-27" style="edgeStyle=orthogonalEdgeStyle;rounded=0;orthogonalLoop=1;jettySize=auto;html=1;exitX=0.5;exitY=0;exitDx=0;exitDy=0;entryX=0.5;entryY=0.8;entryDx=0;entryDy=0;entryPerimeter=0;" parent="1" source="Ads9iYY9otx-zzuFFO7g-21" target="Ads9iYY9otx-zzuFFO7g-25" edge="1">
          <mxGeometry relative="1" as="geometry" />
        </mxCell>
        <mxCell id="Ads9iYY9otx-zzuFFO7g-28" value="Command.publish()" style="edgeLabel;html=1;align=center;verticalAlign=middle;resizable=0;points=[];" parent="Ads9iYY9otx-zzuFFO7g-27" vertex="1" connectable="0">
          <mxGeometry x="-0.0145" y="1" relative="1" as="geometry">
            <mxPoint x="56" as="offset" />
          </mxGeometry>
        </mxCell>
        <mxCell id="Ads9iYY9otx-zzuFFO7g-29" value="Persistence" style="html=1;whiteSpace=wrap;fillColor=#d5e8d4;strokeColor=#82b366;" parent="1" vertex="1">
          <mxGeometry x="905" y="90" width="110" height="50" as="geometry" />
        </mxCell>
        <mxCell id="Ads9iYY9otx-zzuFFO7g-33" value="Connection" style="html=1;whiteSpace=wrap;fillColor=#d5e8d4;strokeColor=#82b366;" parent="1" vertex="1">
          <mxGeometry x="905" y="690" width="110" height="50" as="geometry" />
        </mxCell>
        <mxCell id="Ads9iYY9otx-zzuFFO7g-34" style="edgeStyle=orthogonalEdgeStyle;rounded=0;orthogonalLoop=1;jettySize=auto;html=1;exitX=0.5;exitY=1;exitDx=0;exitDy=0;entryX=0.5;entryY=0;entryDx=0;entryDy=0;startArrow=classic;startFill=1;" parent="1" source="Ads9iYY9otx-zzuFFO7g-21" target="Ads9iYY9otx-zzuFFO7g-33" edge="1">
          <mxGeometry relative="1" as="geometry" />
        </mxCell>
        <mxCell id="Ads9iYY9otx-zzuFFO7g-37" value="send()" style="edgeLabel;html=1;align=center;verticalAlign=middle;resizable=0;points=[];" parent="Ads9iYY9otx-zzuFFO7g-34" vertex="1" connectable="0">
          <mxGeometry x="-0.025" y="2" relative="1" as="geometry">
            <mxPoint x="-27" y="11" as="offset" />
          </mxGeometry>
        </mxCell>
        <mxCell id="Ads9iYY9otx-zzuFFO7g-38" value="receive()" style="edgeLabel;html=1;align=center;verticalAlign=middle;resizable=0;points=[];" parent="Ads9iYY9otx-zzuFFO7g-34" vertex="1" connectable="0">
          <mxGeometry x="0.2" y="-2" relative="1" as="geometry">
            <mxPoint x="33" y="2" as="offset" />
          </mxGeometry>
        </mxCell>
        <mxCell id="Ads9iYY9otx-zzuFFO7g-43" value="server" style="shape=umlFrame;whiteSpace=wrap;html=1;pointerEvents=0;fillColor=#d5e8d4;strokeColor=#82b366;" parent="1" vertex="1">
          <mxGeometry x="680" y="15" width="480" height="785" as="geometry" />
        </mxCell>
        <mxCell id="Ads9iYY9otx-zzuFFO7g-50" value="Command.Result.channel" style="shape=providedRequiredInterface;html=1;verticalLabelPosition=top;sketch=0;labelPosition=right;align=left;verticalAlign=bottom;fillColor=#d5e8d4;strokeColor=#82b366;" parent="1" vertex="1">
          <mxGeometry x="760" y="425" width="20" height="20" as="geometry" />
        </mxCell>
        <mxCell id="Ads9iYY9otx-zzuFFO7g-51" style="edgeStyle=orthogonalEdgeStyle;rounded=0;orthogonalLoop=1;jettySize=auto;html=1;exitX=0;exitY=0.5;exitDx=0;exitDy=0;" parent="1" source="Ads9iYY9otx-zzuFFO7g-24" target="Ads9iYY9otx-zzuFFO7g-50" edge="1">
          <mxGeometry relative="1" as="geometry" />
        </mxCell>
        <mxCell id="Ads9iYY9otx-zzuFFO7g-52" value="Command.Result.send()" style="edgeLabel;html=1;align=center;verticalAlign=middle;resizable=0;points=[];" parent="Ads9iYY9otx-zzuFFO7g-51" vertex="1" connectable="0">
          <mxGeometry x="-0.3565" y="1" relative="1" as="geometry">
            <mxPoint x="-26" y="-1" as="offset" />
          </mxGeometry>
        </mxCell>
        <mxCell id="Ads9iYY9otx-zzuFFO7g-53" style="edgeStyle=orthogonalEdgeStyle;rounded=0;orthogonalLoop=1;jettySize=auto;html=1;exitX=0;exitY=0.5;exitDx=0;exitDy=0;entryX=0.4;entryY=0.8;entryDx=0;entryDy=0;entryPerimeter=0;" parent="1" source="Ads9iYY9otx-zzuFFO7g-21" target="Ads9iYY9otx-zzuFFO7g-50" edge="1">
          <mxGeometry relative="1" as="geometry" />
        </mxCell>
        <mxCell id="Ads9iYY9otx-zzuFFO7g-54" value="receive()" style="edgeLabel;html=1;align=center;verticalAlign=middle;resizable=0;points=[];" parent="Ads9iYY9otx-zzuFFO7g-53" vertex="1" connectable="0">
          <mxGeometry x="-0.3665" y="1" relative="1" as="geometry">
            <mxPoint x="-26" y="-1" as="offset" />
          </mxGeometry>
        </mxCell>
        <mxCell id="Ads9iYY9otx-zzuFFO7g-55" style="edgeStyle=orthogonalEdgeStyle;rounded=0;orthogonalLoop=1;jettySize=auto;html=1;exitX=0.5;exitY=0;exitDx=0;exitDy=0;entryX=0.5;entryY=1;entryDx=0;entryDy=0;" parent="1" source="Ads9iYY9otx-zzuFFO7g-24" target="Ads9iYY9otx-zzuFFO7g-29" edge="1">
          <mxGeometry relative="1" as="geometry" />
        </mxCell>
        <mxCell id="Ads9iYY9otx-zzuFFO7g-56" value="Entity.store()" style="edgeLabel;html=1;align=center;verticalAlign=middle;resizable=0;points=[];" parent="Ads9iYY9otx-zzuFFO7g-55" vertex="1" connectable="0">
          <mxGeometry x="-0.2545" y="-2" relative="1" as="geometry">
            <mxPoint x="-2" y="-19" as="offset" />
          </mxGeometry>
        </mxCell>
        <mxCell id="Ads9iYY9otx-zzuFFO7g-24" value="Command.Processor" style="html=1;whiteSpace=wrap;fillColor=#d5e8d4;strokeColor=#82b366;" parent="1" vertex="1">
          <mxGeometry x="890" y="250" width="140" height="50" as="geometry" />
        </mxCell>
        <mxCell id="Ads9iYY9otx-zzuFFO7g-25" value="Command.channel" style="shape=providedRequiredInterface;html=1;verticalLabelPosition=bottom;sketch=0;labelPosition=right;align=left;verticalAlign=top;fillColor=#d5e8d4;strokeColor=#82b366;" parent="1" vertex="1">
          <mxGeometry x="950" y="290" width="20" height="20" as="geometry" />
        </mxCell>
        <mxCell id="YpjcWF8Jt9GaCo87n-Lr-13" value="" style="ellipse;html=1;shape=startState;fillColor=#000000;strokeColor=#ff0000;" vertex="1" parent="1">
          <mxGeometry x="1080" y="500" width="30" height="30" as="geometry" />
        </mxCell>
        <mxCell id="YpjcWF8Jt9GaCo87n-Lr-14" value="" style="edgeStyle=orthogonalEdgeStyle;html=1;verticalAlign=bottom;endArrow=open;endSize=8;strokeColor=#ff0000;rounded=0;entryX=1;entryY=0.5;entryDx=0;entryDy=0;" edge="1" source="YpjcWF8Jt9GaCo87n-Lr-13" parent="1" target="Ads9iYY9otx-zzuFFO7g-21">
          <mxGeometry relative="1" as="geometry">
            <mxPoint x="1095" y="590" as="targetPoint" />
            <Array as="points">
              <mxPoint x="1095" y="585" />
            </Array>
          </mxGeometry>
        </mxCell>
      </root>
    </mxGraphModel>
  </diagram>
</mxfile>
